<?xml version="1.0" encoding="utf-8"?>
<!-- Svg Vector Icons : http://www.onlinewebfonts.com/icon -->
<!DOCTYPE svg PUBLIC "-//W3C//DTD SVG 1.1//EN" "http://www.w3.org/Graphics/SVG/1.1/DTD/svg11.dtd">
<svg fill="rgb(234 238 255)" version="1.1" xmlns="http://www.w3.org/2000/svg" xmlns:xlink="http://www.w3.org/1999/xlink" x="0px" y="0px" viewBox="0 0 1000 1000" enable-background="new 0 0 1000 1000" xml:space="preserve">
<metadata> Svg Vector Icons : http://www.onlinewebfonts.com/icon </metadata>
<g><g transform="translate(0.000000,477.000000) scale(0.100000,-0.100000)"><path d="M4806.3,4315c-205.2-65.2-372.1-237.8-431.5-444.9c-88.2-301.1,65.2-636.7,349-767.1l101.6-46l5.8-450.7l5.8-452.6l53.7-46c69-59.4,149.6-59.4,218.6,0l53.7,46l5.8,452.6l5.7,450.7l103.6,47.9c130.4,59.5,249.3,178.4,314.5,316.4c42.2,90.1,49.9,134.2,49.9,270.4c0,195.6-53.7,331.8-182.2,460.3C5299.2,4313,5019.2,4384,4806.3,4315z M5182.2,3958.2c80.6-53.7,143.8-174.5,143.8-270.4c0-163-161.1-322.2-326-322.2c-109.3,0-230.1,74.8-281.9,172.6c-86.3,163-30.7,351,130.4,437.3C4954,4033,5082.5,4025.4,5182.2,3958.2z"/><path d="M4731.5,1714.4C3807.1,1607,3028.5,930,2783,19.1c-42.2-161.1-51.8-243.6-59.5-508.2c-7.7-272.3-3.8-345.2,32.6-517.8c176.4-861.1,828.5-1547.7,1680-1764.4c932.1-239.7,1917.8,138.1,2464.4,943.6c118.9,172.6,257,479.5,316.4,696.2c49.9,180.3,53.7,216.7,53.7,575.3c0,358.6-3.8,395.1-53.7,575.3c-222.5,809.3-849.6,1432.6-1651.2,1637.8C5285.8,1729.8,5019.2,1747,4731.5,1714.4z M5212.9,1390.3c688.5-78.6,1273.4-502.5,1570.7-1135.3c130.4-281.9,163-437.3,163-811.2c0-281.9-5.8-349-44.1-489c-92.1-339.5-278.1-655.9-525.5-903.3c-487.1-481.4-1210.1-677-1864.1-506.3c-560,147.7-1014.5,517.8-1267.7,1035.6c-159.2,324.1-191.8,469.9-191.8,863c0,281.9,5.8,349.1,44.1,489c184.1,673.1,696.2,1198.6,1355.9,1390.4C4725.8,1401.8,4942.5,1421,5212.9,1390.3z"/><path d="M4931,730.6c-42.2-19.2-67.1-47.9-84.4-95.9c-17.3-55.6-40.3-76.7-124.7-115.1c-130.4-59.4-249.3-178.4-314.5-316.4c-42.2-90.1-49.9-134.2-49.9-270.4c0-136.2,7.7-180.3,49.9-270.4c95.9-203.3,295.3-349,508.2-372.1c191.8-23,220.5-32.6,289.6-92.1c126.6-111.3,153.4-253.1,76.7-397c-53.7-101.6-172.6-172.6-287.7-172.6c-163,0-320.3,159.2-320.3,324.1c0,143.8-199.5,214.8-287.7,103.6c-34.5-44.1-40.3-72.9-34.5-159.2c15.3-218.6,168.8-437.3,370.1-529.3c84.4-38.4,107.4-59.4,124.7-115.1c15.3-46,42.2-76.7,88.2-97.8c59.5-28.8,71-28.8,130.4,0c46,21.1,72.9,51.8,88.2,97.8c17.3,55.6,40.3,76.7,124.7,115.1c130.4,59.5,249.3,178.4,314.5,316.4c42.2,90.1,49.9,134.2,49.9,270.4c0,136.2-7.7,180.3-51.8,270.4c-101.6,220.5-295.3,351-560,379.7c-176.4,21.1-262.7,69-316.4,182.2c-51.8,105.5-49.9,195.6,3.8,299.2c51.8,97.8,172.6,172.6,281.9,172.6c164.9,0,326-159.2,326-320.3c0-151.5,184.1-218.6,285.8-105.5c40.3,44.1,44.1,63.3,34.5,159.2c-19.2,226.3-166.9,435.3-368.2,527.4c-84.4,38.4-107.4,59.5-124.7,115.1c-17.3,49.9-42.2,76.7-88.2,95.9C4990.4,761.3,5005.8,761.3,4931,730.6z"/><path d="M614,1390.3C426,1350,245.8,1210,157.5,1031.7c-47.9-95.9-55.6-134.2-57.5-274.2c0-140,7.7-180.3,53.7-278.1C343.6,74.7,859.5-23.1,1193.1,279.9l103.6,95.9l515.9-201.4c600.3-235.9,642.5-243.6,705.8-122.7c34.5,65.2,21.1,151.5-26.9,193.7c-17.3,15.3-272.3,120.8-563.8,235.9l-533.1,207.1v92.1C1394.5,1152.5,989.9,1468.9,614,1390.3z M824.9,1062.4c358.6-99.7,299.2-631-71-631c-118.9,0-216.7,47.9-274.3,134.2c-120.8,174.5-42.2,418.1,157.3,489C731,1087.3,734.8,1087.3,824.9,1062.4z"/><path d="M9088.8,1380.7c-134.2-38.4-166.9-55.6-278.1-161.1c-124.6-117-189.9-245.5-201.4-406.6l-7.7-126.6l-531.2-207.1c-627.1-243.6-669.3-274.2-586.8-429.6c61.4-118.9,107.4-111.2,705.7,124.7l514,201.4l92.1-84.4c141.9-134.2,234-172.6,423.8-182.2c134.2-5.8,182.2,0,272.3,34.5c143.8,53.7,285.7,187.9,354.8,335.6c46,97.8,53.7,138.1,53.7,278.1c-1.9,140-9.6,178.3-57.5,274.2C9704.4,1307.9,9376.4,1461.3,9088.8,1380.7z M9412.9,1033.6c111.3-55.6,186-214.8,163-339.4c-67.1-356.7-598.3-347.1-638.6,11.5C8906.6,974.1,9173.1,1158.2,9412.9,1033.6z"/><path d="M3404.4-2658.2c-19.2-9.6-195.6-211-393.1-444.9c-314.5-374-362.5-425.8-406.6-420c-26.8,3.8-126.6,7.7-222.5,9.6c-207.1,3.8-301.1-30.7-446.8-166.8c-264.7-247.4-274.3-648.2-24.9-916.7c42.2-47.9,126.6-109.3,187.9-140c95.9-47.9,134.2-55.6,274.2-57.5c138.1,0,180.3,7.7,270.4,49.8c354.8,166.9,491,567.7,310.7,903.3c-44.1,80.5-46,95.9-23,128.5c15.3,21.1,180.3,220.5,368.2,443c297.3,354.8,339.5,412.3,339.5,471.8C3638.4-2677.4,3506-2596.8,3404.4-2658.2z M2501.1-3847.2c124.7-46,201.4-164.9,201.4-308.8c-3.8-287.7-347.1-423.8-552.3-218.6C1906.6-4131.1,2178.9-3724.5,2501.1-3847.2z"/><path d="M6409.6-2685c-32.6-30.7-47.9-67.1-47.9-113.2c0-59.5,42.2-117,341.4-475.6c186-224.4,351-423.8,364.4-441.1c23-28.8,17.3-49.8-36.4-161.1c-178.4-360.6,17.2-784.4,414.2-899.5c521.6-151.5,991.5,391.3,767.1,886c-61.4,140-195.6,274.2-331.8,337.5c-74.8,34.5-120.8,42.2-262.7,38.3c-94-1.9-195.6-5.7-222.5-9.6c-44.1-5.7-92.1,44.1-408.5,420c-197.5,235.9-374,435.3-395.1,446.8C6530.4-2623.7,6457.5-2635.2,6409.6-2685z M7748.2-3853c82.5-32.6,161.1-128.5,186-222.5c28.8-103.6-5.8-220.5-84.4-299.2c-205.2-205.2-552.3-67.1-552.3,220.5C7297.5-3914.3,7527.7-3759,7748.2-3853z"/></g></g>
</svg>